<svg xmlns="http://www.w3.org/2000/svg" viewBox="0 0 365.34 130.67"><defs><style>.cls-1{fill:#040000;}.cls-2{fill:#fff;}.cls-3{fill:#fff100;}.cls-4{fill:#ded8ca;}.cls-5{fill:#856d32;}.cls-6{fill:#cd7f02;}.cls-7{fill:#ddd8ca;}.cls-8{fill:#ddd8c9;}.cls-9{fill:#dcd7c9;}.cls-10{fill:#5fb0c0;}.cls-11{fill:#fcfcfb;}.cls-12{fill:#846f36;}.cls-13{fill:#d4d0c3;}.cls-14{fill:#3e4746;}.cls-15{fill:#ddeef2;}.cls-16{fill:#796863;}.cls-17{fill:#202523;}.cls-18{fill:#e9ecea;}.cls-19{fill:#d0d6d7;}.cls-20{fill:#ece7e3;}.cls-21{fill:#5a8d81;}.cls-22{fill:#4d95a2;}.cls-23{fill:#eeece7;}.cls-24{fill:#50797f;}.cls-25{fill:#4e3f20;}.cls-26{fill:#daeaee;}.cls-27{fill:#566752;}.cls-28{fill:#aaa;}.cls-29{fill:#496958;}.cls-30{fill:#527f71;}.cls-31{fill:#3d828e;}.cls-32{fill:#586363;}.cls-33{fill:#768784;}.cls-34{fill:#4b6856;}.cls-35{fill:#a8c3cc;}.cls-36{fill:#49786b;}.cls-37{fill:#43695d;}.cls-38{fill:#4b6d5d;}.cls-39{fill:#f9fbfb;}.cls-40{fill:#e0f1f4;}.cls-41{fill:#dfeef0;}.cls-42{fill:#e0f0f3;}.cls-43{fill:#def0f3;}.cls-44{fill:#e1f1f4;}.cls-45{fill:#dff0f3;}.cls-46{fill:#e4f2f5;}.cls-47{fill:#dceef2;}.cls-48{fill:#bcdfe9;}.cls-49{fill:#6e6461;}.cls-50{fill:#e3f2f5;}.cls-51{fill:#e5f3f6;}.cls-52{fill:#d9d6d4;}.cls-53{fill:#e4f3f6;}.cls-54{fill:#e4f2f6;}.cls-55{fill:#e2f1f4;}.cls-56{fill:#e0f0f4;}.cls-57{fill:#ddeff3;}.cls-58{fill:#e5e2e1;}.cls-59{fill:#52a2b0;}.cls-60{fill:#eceeee;}.cls-61{fill:#788562;}.cls-62{fill:#798968;}.cls-63{fill:#9acdeb;}.cls-64{fill:#fefefe;}.cls-65{fill:#3d3325;}.cls-66{fill:#e7d6b4;}.cls-67{fill:#9cd4f4;}.cls-68{fill:#e4c97c;}.cls-69{fill:#2e271f;}.cls-70{fill:#f5e2b2;}.cls-71{fill:#fcf4e2;}.cls-72{fill:#e7e6e1;}.cls-73{fill:#87bfcb;}.cls-74{fill:#dfe2dc;}.cls-75{fill:#98b6b1;}.cls-76{fill:#585735;}.cls-77{fill:#dfdabc;}.cls-78{fill:#858f92;}.cls-79{fill:#231815;}</style></defs><title>logo1</title><g id="图层_2" data-name="图层 2"><g id="图层_1-2" data-name="图层 1"><path class="cls-1" d="M49.47,130.32a1,1,0,0,1-1.16-.11,7.67,7.67,0,0,1-1-1.91,4.1,4.1,0,0,0-.21-.48c-.44-.94-.86-1.9-1.29-2.85-.28-.65-.32-.68-1-.49-1.3.37-2.64.65-3.94,1a1,1,0,0,1-1.16-.25,1,1,0,0,1-.07-1.28c.81-1.39,1.59-2.79,2.47-4.13.08-.3-.17-.25-.31-.28a11.2,11.2,0,0,0-1.14-.17,2.14,2.14,0,0,0-.44-.08l-.15,0c-.41-.11-.83-.21-1.24-.3A19.39,19.39,0,0,1,31,115a12,12,0,0,1-4.42-8.39,7.74,7.74,0,0,1,.36-2.82.58.58,0,0,0-.32-.81,13.82,13.82,0,0,1-5.68-5.9,1,1,0,0,0-.44-.45,20.59,20.59,0,0,1-4.26-2.91,7.46,7.46,0,0,0-3.53-1.94,7.57,7.57,0,0,0-4.89.56,3.59,3.59,0,0,0-1,.87.79.79,0,0,1-1.08.23.8.8,0,0,1-.31-1.06A18.68,18.68,0,0,1,7,89a9.08,9.08,0,0,1,3.63-3,9.15,9.15,0,0,1,3.86-1.21,8,8,0,0,1,3.48.4c.35.15.51.11.55-.3.05-.61.12-1.23.19-1.84,0-.24-.05-.33-.29-.3a3,3,0,0,0-.42,0,5.73,5.73,0,0,1-3.33-.17,12.92,12.92,0,0,0-2.13-.41,10.77,10.77,0,0,1-7.21-3.61A1.48,1.48,0,0,1,5,76.84a1.22,1.22,0,0,1,1.1-.69,14.76,14.76,0,0,0,4.5-1.32c.32-.11.33-.37.23-.65-.21-.66-.45-1.3-.63-2a31.08,31.08,0,0,1-1.06-8.69,29.86,29.86,0,0,1,1.51-9.05,25.1,25.1,0,0,1,5.05-8.87,19.84,19.84,0,0,1,12.34-6.72,16.86,16.86,0,0,1,9.68,1.61,21.09,21.09,0,0,1,2.54,1.42,22.44,22.44,0,0,1,2.38,1.84c-.43-1.63-.43-3.25-.83-4.8a9.18,9.18,0,0,1-.26-1.35,1.6,1.6,0,0,1,.8-1.66,1.51,1.51,0,0,1,1.77.44c.92,1,1.8,2.09,2.75,3.08,1.87,1.95,3.61,4,5.3,6.13,1,1.18,2,2.29,3,3.43.4.44.41.45.66-.08a23,23,0,0,1,3.16-5,26.72,26.72,0,0,1,22-9.58A28.26,28.26,0,0,1,91.66,37c.77.37,1.54.71,2.27,1.15.13.08.25.18.39.25s.27.15.4.24a27.69,27.69,0,0,1,4.65,3.49A28.89,28.89,0,0,1,108.54,60a34.16,34.16,0,0,1,.1,4.85,8.35,8.35,0,0,1-.07,1.32,8.25,8.25,0,0,0,0,1.79,20.75,20.75,0,0,1-.35,4.16c-.15,1.05-.08,2.12-.32,3.16-.08.36.17.49.45.6a6.13,6.13,0,0,1,1.58.73,3.14,3.14,0,0,0,1.33.45,1.73,1.73,0,0,1,1.09.44,7.59,7.59,0,0,1,1.67.61,2.34,2.34,0,0,1,.73.51,1.27,1.27,0,0,1,.15,1.64,1.23,1.23,0,0,1-1.56.38c-.43-.2-.84-.42-1.29-.58a5.52,5.52,0,0,1-1.61-.35c-.18,0-.36-.12-.55-.16a19,19,0,0,0-2.38-.51.77.77,0,0,0-1,.49,25.31,25.31,0,0,1-2.42,4,29.41,29.41,0,0,1-1.84,2.76,16.11,16.11,0,0,1-10,5.64,8.13,8.13,0,0,1-5.67-1.11c-.12.51-.08,1-.16,1.52a20.72,20.72,0,0,1-2.13,6,28,28,0,0,1-3.18,4.81,31.58,31.58,0,0,1-6.3,5.86,27.07,27.07,0,0,1-8.54,4.23,20.35,20.35,0,0,1-4,.62c-.45,0-.9-.1-1.37-.08a1.06,1.06,0,0,0-.76.31,17.09,17.09,0,0,1-4.86,3.52c-.42.2-.41.26-.07.58,1.23,1.15,2.48,2.26,3.64,3.47a1,1,0,0,1,.36,1c-.15.44-.5.57-.94.64-2,.37-4.08.68-6.11,1a.79.79,0,0,0-.68.62c-.35,1.06-.61,2.14-1,3.19-.13.54-.3,1.07-.48,1.6A.88.88,0,0,1,49.47,130.32Z"/><path class="cls-1" d="M112.31,77.45a6.68,6.68,0,0,0-1.53-.36,2,2,0,0,1-.91-.39,2.21,2.21,0,0,1-.05-.68,48.68,48.68,0,0,0-1-11c-.09-.43-.1-.87-.17-1.26-.08.29.32.67-.12.95a6.88,6.88,0,0,1,0-1.57,4.13,4.13,0,0,0,0-1.11c-.12-.94-.14-1.89-.28-2.84a25.73,25.73,0,0,0-.83-3.8,28.4,28.4,0,0,0-2-5.11A30.16,30.16,0,0,0,100.08,43a26.24,26.24,0,0,0-3.93-3.27c-.51-.35-1-.68-1.55-1,0-.16-.17-.2-.28-.28a1.54,1.54,0,0,1-.36-.27,56.09,56.09,0,0,0-7.41-5.9,54.55,54.55,0,0,0-13-6.27,56,56,0,0,0-10.23-2.27c-1.66-.21-3.33-.3-5-.38-1.41-.07-2.81,0-4.22,0a51.61,51.61,0,0,0-8,.95A54.87,54.87,0,0,0,30.8,29.68,54.38,54.38,0,0,0,11.09,47.43,52.27,52.27,0,0,0,2.91,68.28a61.36,61.36,0,0,0-.6,6.36,42.45,42.45,0,0,0,.07,4.92,47.06,47.06,0,0,0,1.1,7.91,51,51,0,0,0,4.3,12,52.62,52.62,0,0,0,21.09,21.94,54,54,0,0,0,17.81,6.24l.57.1c.35.8.71,1.61,1.06,2.42a21.63,21.63,0,0,1-2.4-.33,54,54,0,0,1-6-1.36,57.25,57.25,0,0,1-6.37-2.24,54.78,54.78,0,0,1-7.66-3.93,53.75,53.75,0,0,1-7-5.14,51.57,51.57,0,0,1-5.42-5.34A56.71,56.71,0,0,1,8,104.57,53.53,53.53,0,0,1,.23,81.64,50.9,50.9,0,0,1,0,75c0-1.43.11-2.85.27-4.27a55.09,55.09,0,0,1,1.18-6.87,54.35,54.35,0,0,1,3.18-9.39A55.37,55.37,0,0,1,10,45.05a56.25,56.25,0,0,1,5.77-6.93,55.25,55.25,0,0,1,6.58-5.73,57.49,57.49,0,0,1,17.9-8.95,50.5,50.5,0,0,1,5.58-1.38,59.93,59.93,0,0,1,6.28-.83,56.85,56.85,0,0,1,16.14,1A55,55,0,0,1,74,23.77a54.42,54.42,0,0,1,6.49,2.52,55.87,55.87,0,0,1,7.73,4.35A54.24,54.24,0,0,1,94,35.08a56.13,56.13,0,0,1,5.2,5.26A58.8,58.8,0,0,1,102.77,45a54,54,0,0,1,3.64,6.13,54.2,54.2,0,0,1,5,15,49.79,49.79,0,0,1,.77,7.51c0,1.11.06,2.22,0,3.33C112.15,77.16,112.14,77.32,112.31,77.45Z"/><path class="cls-1" d="M49.47,130.32a5.86,5.86,0,0,0,.74-2,.42.42,0,0,1,.09-.24,24,24,0,0,0,3.58.28,56.65,56.65,0,0,0,6.77-.21A57.28,57.28,0,0,0,71.49,126,53.39,53.39,0,0,0,80,122.68a54.51,54.51,0,0,0,11.84-7.94,53.09,53.09,0,0,0,11.32-13.95,51.75,51.75,0,0,0,6.26-18.72c.09-.67.17-1.33.21-2a1.14,1.14,0,0,1,.22-.69A17.82,17.82,0,0,1,112,80,60.3,60.3,0,0,1,110.93,87a57.55,57.55,0,0,1-2.27,7.59,56.88,56.88,0,0,1-3.29,7.08,55.15,55.15,0,0,1-5,7.43,57.33,57.33,0,0,1-22,16.9,56.36,56.36,0,0,1-6.81,2.45,52.89,52.89,0,0,1-5.79,1.37c-1.41.25-2.82.44-4.23.59a57.72,57.72,0,0,1-7.66.3A31.8,31.8,0,0,1,49.47,130.32Z"/><path class="cls-2" d="M73.81,60.61A19.2,19.2,0,0,1,80,61c1.39.34,2.74.78,4.11,1.17a37.37,37.37,0,0,0,4.69,1c1.46.21,2.88.63,4.32,1a31.9,31.9,0,0,0,6.37.93c.46,0,.91.06,1.37.09.1-.05.22-.08.29,0s0,.2-.05.28a3.4,3.4,0,0,1-1.82,1.43c-3.57,1-7.06,2.33-10.67,3.25a5.32,5.32,0,0,1-2.77.07,2.66,2.66,0,0,0-3.18,1.24,2.61,2.61,0,0,1-1.12.88,9.78,9.78,0,0,1-3.4.93,3.76,3.76,0,0,1-3.2-1.44,6.15,6.15,0,0,1-.46-.58,1.44,1.44,0,0,0-1.34-.87.39.39,0,0,1-.31-.18,2.52,2.52,0,0,1-.2-1.24c0-.17.05-.41-.17-.45s-.35.16-.42.34a4.35,4.35,0,0,0-.27,1.71,5,5,0,0,0,3.14,4.59,8.46,8.46,0,0,0,5.23.94,4.53,4.53,0,0,1,.52,0,1.84,1.84,0,0,0,.41,0,.23.23,0,0,1,.22.1,2.81,2.81,0,0,0,1.26,2.43.74.74,0,0,1,.29,1,3.24,3.24,0,0,0,0,1.72A9.58,9.58,0,0,1,83.05,84a19.25,19.25,0,0,0-.21,2.83,12.73,12.73,0,0,1,.15-2c.2,0,.19.2.21.32a14.57,14.57,0,0,1,.31,1.83,16.24,16.24,0,0,1-1.72,8.94,25.31,25.31,0,0,1-5.87,7.56,15.28,15.28,0,0,1-5.45,2.93A12.56,12.56,0,0,1,66,107a9.73,9.73,0,0,1-4.47-1.17,1.21,1.21,0,0,1-.48-.47,3.25,3.25,0,0,0-3.68-1.68,5.21,5.21,0,0,0-3.94,4,2,2,0,0,1-.93,1.32A9.28,9.28,0,0,0,51,110.11a16,16,0,0,1-5.39,2.63,11.14,11.14,0,0,1-3,.53,7.5,7.5,0,0,1-1.94-.17q-.6-.12-1.2-.18a.44.44,0,0,1-.23-.34,8.23,8.23,0,0,1,.11-3.66,1.27,1.27,0,0,1,.85-.85,20.07,20.07,0,0,0,3.08-1.53c1.71-1,3.54-1.75,5.25-2.73a8.27,8.27,0,0,0,.93-.61,1.59,1.59,0,0,0-.11-2.62c-.14-.1-.3-.18-.44-.29a1.23,1.23,0,0,0-1.48-.07,10.44,10.44,0,0,0-.89.58c-2.18,1.47-4.4,2.87-6.69,4.16a1,1,0,0,1-1,0c-1.24-.6-2.35-1.43-3.55-2.1a1.94,1.94,0,0,1-.66-.81,1.67,1.67,0,0,0-2.27-.73,1.43,1.43,0,0,0-.57,2.18,1.49,1.49,0,0,0,.93.74,3.16,3.16,0,0,1,1.54,1,9.27,9.27,0,0,0,2.54,1.49l.25.1c1,.41,1.09.57.88,1.58a9.32,9.32,0,0,0,0,2.53c0,.28.06.65-.42.65a4.52,4.52,0,0,1-.88-.56.38.38,0,0,1-.12-.09,5.27,5.27,0,0,0-1.53-.78,12.47,12.47,0,0,1-1.69-.69.57.57,0,0,1-.13-.08c-.37-.27-.75-.51-1.13-.76l-.12-.08-.16-.15a2.41,2.41,0,0,1-.42-.68c-.31-.79-.67-1.55-.91-2.37a.43.43,0,0,1,0-.16c0-1,.41-1.92.44-2.9a2.33,2.33,0,0,0-.27-1.16c-.06-.1-.06-.23-.22-.28.13.05.16.16.2.25a2.63,2.63,0,0,1,.19,2,6.24,6.24,0,0,0-.28,1.54.29.29,0,0,1-.13.27,1.13,1.13,0,0,1-.56-1.19,1.94,1.94,0,0,0-.83-2,6.71,6.71,0,0,0-2.73-1.34,3.27,3.27,0,0,1-1.28-.7,23.76,23.76,0,0,1-3-4.14,19.94,19.94,0,0,1-1.54-5.25,22.11,22.11,0,0,1-.11-5.63,22.41,22.41,0,0,1,1.24-5.43c.05,0,.1,0,.14,0a9.62,9.62,0,0,0,.33,1.28,4.7,4.7,0,0,1,.21.82,1.82,1.82,0,0,1-.11.46,15,15,0,0,0-.85,4.56,18.41,18.41,0,0,0,1.29,7.49,9.24,9.24,0,0,0,1.66,2.76,3.68,3.68,0,0,0,3,1.55,2.49,2.49,0,0,0,1.3-.4,1.18,1.18,0,0,1,1.14-.19,1.11,1.11,0,0,0,.48.05,1.05,1.05,0,0,0,1-.62.92.92,0,0,0-.22-1.12c-.43-.36-.38-.7-.19-1.16a12.16,12.16,0,0,0,.7-5.61,21.85,21.85,0,0,0-.7-4.33,11.75,11.75,0,0,0-2-4.15,5.74,5.74,0,0,0-1.05-1,3.11,3.11,0,0,0-4.71.71,2.64,2.64,0,0,1-.59.74c-.36,0-.19-.4-.36-.55a8.45,8.45,0,0,1-.26-1.19c-.12-.12,0-.27-.06-.41a10,10,0,0,1,.8-2.11,21.43,21.43,0,0,1,8.23-9.49,1.37,1.37,0,0,1,.51-.26,7.63,7.63,0,0,1,3.12,0c.2,0,.42.09.4.38-.2.37-.39.75-.59,1.11l-3.38,6.09c-.05.1-.11.19-.15.28a1,1,0,0,0,.09,1,1,1,0,0,0,1,.35,4.62,4.62,0,0,0,.6-.19L35.06,75c.13,0,.2,0,.26.13.54.74,1.09,1.48,1.63,2.23.06.09,0,.2.1.29l.66,5.68c0,.26.06.52.11.78a.86.86,0,0,0,.65.75.88.88,0,0,0,.92-.39c.66-.86,1.4-1.67,2.14-2.47,1-.49,2.06-.83,3.06-1.3a16,16,0,0,0,1.94-1,.3.3,0,0,1,.29-.07A18.79,18.79,0,0,1,48,81.15a3.47,3.47,0,0,1,.3.37.89.89,0,0,0,1,.38.85.85,0,0,0,.58-.85c.2-1.88.41-3.75.62-5.63.11-1,.23-2,.35-3a1.63,1.63,0,0,1,.07-.3c.19,0,.28.16.39.26l2.54,2.16a2.12,2.12,0,0,0,.38.29.84.84,0,0,0,1.27-.4,2.94,2.94,0,0,0,.19-.66c.52-2.48,1.05-5,1.57-7.45.05-.24.1-.37.39-.33a36.47,36.47,0,0,1,4.66.62.7.7,0,0,0,.76-.22.68.68,0,0,0,0-.84c-.33-.54-.59-1.12-.89-1.71a3,3,0,0,1,1.07-.26c1-.2,2-.38,3-.57a1.58,1.58,0,0,0,.31-.09.59.59,0,0,0-.07-1.15c-1.4-.4-2.77-.89-4.15-1.37-.49-.17-.81-.08-.92.27s.1.54.59.71l1.8.61c.07,0,.17.07.11.19-.54.09-1.07.21-1.61.29a2.18,2.18,0,0,1-1.08.06c-.33-.11-.64.28-.56.64a3,3,0,0,0,.2.49c.22.51.45,1,.7,1.58-1.05-.1-2-.27-3-.44a11.12,11.12,0,0,1-1.7-.34.81.81,0,0,0-1.06.91,1.3,1.3,0,0,1,0,.52c-.46,2-.93,4-1.4,6a.46.46,0,0,1-.07.14.14.14,0,0,1-.17-.08c-.2-.64-.74-.92-1.26-1.22-.83-.5-1.63-1-2.43-1.6-1-.67-1.74-.38-2.08.77s-.61,2.44-1,3.64c0,.1,0,.21-.08.31s-.12.54-.39.49-.32-.39-.32-.66a1.24,1.24,0,0,1,.14-.45,1.07,1.07,0,0,0-1.55-1.34,5.49,5.49,0,0,0-2,1.54,12.07,12.07,0,0,1-1.37,1.4c-.14.13-.29.34-.49.25s-.16-.37-.15-.58c.18-2.23.31-4.46.29-6.7,0-.76-.09-1.51-.13-2.27a3.93,3.93,0,0,0-.68-1.76,1.42,1.42,0,0,0-1.28-.61A18.92,18.92,0,0,1,36.11,63a1.13,1.13,0,0,1-.26,0c-.17-.07-.42,0-.47-.27s.16-.3.29-.41a25.92,25.92,0,0,1,3.76-2.47,1.57,1.57,0,0,1,.77-.16,1.1,1.1,0,0,0,1.06-.65,1.3,1.3,0,0,1,.48-.48,1.13,1.13,0,0,0,.06-2,11.89,11.89,0,0,0-2.29-1.33c-.7-.34-1.39-.69-2.11-1-.21-.09-.57-.18-.51-.45s.4-.24.65-.26a8.69,8.69,0,0,1,2.1-.18,15.78,15.78,0,0,0,1.81.26H42.8a3.77,3.77,0,0,0,1.28-.28c.16-.06.3-.15.46-.2a3.89,3.89,0,0,1,.76,0,1.58,1.58,0,0,0,.57,0c.8-.1,1.53-.49,2.36-.52a1,1,0,0,0,.88-1,1.52,1.52,0,0,0,0-.52,24.24,24.24,0,0,0-2.35-6.76c-.18-.31-.5-.68,0-1,2.82,2.79,5.69,5.53,8.4,8.43.3.32.59.66.89,1,.47.51.79.54,1.38.15a1.88,1.88,0,0,1,.55-.24.13.13,0,0,1,.14.09,9.06,9.06,0,0,0,2.26,3.6,22.94,22.94,0,0,0,6.05,4.47,21.79,21.79,0,0,0,3.88,1.66,1,1,0,0,1,.43.19,1.28,1.28,0,0,0,.68.25,16.28,16.28,0,0,0,2.79.11,3.25,3.25,0,0,1,.43-.18l.36-.05a.93.93,0,0,0,.23,0s-.11,0-.17,0-.28,0-.43,0a.32.32,0,0,1-.14,0,2.78,2.78,0,0,0-1.56-.16l-.4-.07a.67.67,0,0,1-.55-.56.62.62,0,0,1,.33-.74A2.1,2.1,0,0,1,73.38,61C73.73,61.05,73.8,60.89,73.81,60.61Z"/><path class="cls-3" d="M47.25,127.79c-.12.17-.29.09-.43.06a54.31,54.31,0,0,1-17-5.73,52.56,52.56,0,0,1-10.5-7.38A51.93,51.93,0,0,1,8.18,100.55,50.76,50.76,0,0,1,3,85.67a52.53,52.53,0,0,1-.82-7.62c-.06-1.64,0-3.28.08-4.92a49.57,49.57,0,0,1,1.12-7.95A52.26,52.26,0,0,1,7.92,52.57a52.86,52.86,0,0,1,6.82-10.19A54.13,54.13,0,0,1,26.56,32,55,55,0,0,1,42.72,24.9a53.44,53.44,0,0,1,8-1.46c1.23-.13,2.46-.21,3.69-.27,1.63-.07,3.25,0,4.87,0a54.66,54.66,0,0,1,18.05,4A53.4,53.4,0,0,1,90.61,35a40.85,40.85,0,0,1,3.48,3.09c0,.12,0,.17-.15.14a41.37,41.37,0,0,0-3.81-1.8,30.23,30.23,0,0,0-7.26-1.84,25.73,25.73,0,0,0-5-.17,26.41,26.41,0,0,0-16.46,7,23.39,23.39,0,0,0-5.79,8.18c-.17.05-.22-.09-.29-.18-2.07-2.29-4-4.69-6-7.06-.95-1.14-2-2.2-3-3.29a28.83,28.83,0,0,1-2.17-2.52A1.76,1.76,0,0,0,42.92,36a1.09,1.09,0,0,0-1.06.66,1.89,1.89,0,0,0-.16,1c.11.84.38,1.65.5,2.49.18,1.24.33,2.48.57,3.71a.81.81,0,0,1,0,.15c-.17,0-.25-.15-.35-.24a19.28,19.28,0,0,0-9.2-4.61A15.65,15.65,0,0,0,28.78,39a18.92,18.92,0,0,0-10.72,4.56,23.62,23.62,0,0,0-6.41,8.77,28.87,28.87,0,0,0-2.26,9.05,30.39,30.39,0,0,0,1.4,12.27c.09.27.18.53.29.79s.07.39-.2.49-.78.33-1.18.46c-.77.27-1.54.52-2.31.76a2.6,2.6,0,0,1-1,.15A1.19,1.19,0,0,0,5.09,77a1.21,1.21,0,0,0,.22,1.43,10.53,10.53,0,0,0,4.27,3,20.63,20.63,0,0,0,3.71.8c.93.12,1.81.45,2.73.6a3.33,3.33,0,0,0,1.57,0,7.83,7.83,0,0,1,1.34-.21l-.32,3a1.19,1.19,0,0,1-.5-.17,5.78,5.78,0,0,0-2.21-.45,9.89,9.89,0,0,0-2.11.09,12.4,12.4,0,0,0-5.11,2.43,8,8,0,0,0-2.42,3.28c-.22.52-.44,1-.67,1.56a1.12,1.12,0,0,0-.11.51.64.64,0,0,0,.39.58.61.61,0,0,0,.65-.06.7.7,0,0,0,.2-.18A3.64,3.64,0,0,1,9.2,91.67a8.14,8.14,0,0,1,5.17.51,5.22,5.22,0,0,1,1.42,1A21.28,21.28,0,0,0,18.11,95a9.21,9.21,0,0,0,2.59,1.51c.18,0,.2.23.27.37a15.44,15.44,0,0,0,2.22,3.21A14.05,14.05,0,0,0,26.85,103c.46.25.43.19.28.67A9.2,9.2,0,0,0,27.5,110a13.45,13.45,0,0,0,5,6,19.9,19.9,0,0,0,6.14,2.77.4.4,0,0,1,.23.1c.31.17.66.19,1,.33a.54.54,0,0,1,.22,0,.62.62,0,0,0,.23.07,13.93,13.93,0,0,0,1.43.29.71.71,0,0,1,.56.24c-.29.48-.59,1-.87,1.44l-1.65,2.78a1,1,0,0,0,.06,1.14.85.85,0,0,0,1.06.16,9.75,9.75,0,0,1,1.48-.38c1-.26,2-.5,2.91-.77a.34.34,0,0,1,.48.24C46.24,125.57,46.75,126.68,47.25,127.79Z"/><path class="cls-3" d="M109.56,79a52.3,52.3,0,0,1-8.43,25.11,54.16,54.16,0,0,1-19.56,18,55.1,55.1,0,0,1-15.82,5.7c-1.74.35-3.51.58-5.28.76a58.33,58.33,0,0,1-6.61.24c-1,0-2-.1-3-.15-.15,0-.28,0-.3-.21.33-1.14.68-2.26,1-3.41a.61.61,0,0,1,.57-.5l3.38-.61c.86-.16,1.73-.31,2.59-.48l.52-.08a.7.7,0,0,0,.58-1,2,2,0,0,0-.47-.57q-1.8-1.68-3.62-3.34l-.38-.35a.82.82,0,0,1,.41-.27A17.25,17.25,0,0,0,60,114.27a1.33,1.33,0,0,1,1.14-.46,17.56,17.56,0,0,0,9.19-2.2A31.58,31.58,0,0,0,82.88,100.3a22,22,0,0,0,3.06-7.22,10.55,10.55,0,0,0,.27-1.93c0-.23,0-.45.06-.67a.32.32,0,0,1,.27.08,7.49,7.49,0,0,0,4.7,1.1,14.9,14.9,0,0,0,8.48-3.59,12.31,12.31,0,0,0,3-3.23c.84-1.4,1.8-2.73,2.61-4.16a12.43,12.43,0,0,0,.89-1.79.5.5,0,0,1,.59-.39A12,12,0,0,1,109.56,79Z"/><path class="cls-4" d="M83,83.91a10.8,10.8,0,0,0-.27-2.65c-.08-.45,0-.91-.11-1.36a1.06,1.06,0,0,1,.36-.8,3.82,3.82,0,0,0-.55-.52A3.33,3.33,0,0,1,81.23,77a1.17,1.17,0,0,1,0-.92c0-.23.2-.22.34-.25a7.87,7.87,0,0,1,1.27-.32c.23,0,.32.26.43.43a.41.41,0,0,0,.49.2,2.48,2.48,0,0,0,1.5-.08,29,29,0,0,0,4.84-1.86,3.07,3.07,0,0,0,1-.89.9.9,0,0,1,.76-.39,3.54,3.54,0,0,0,1.15-.38,11.17,11.17,0,0,0,4.07-2.32,8.15,8.15,0,0,0,1.75-1.67c.15-.24.31-.47.44-.72s.22-.3.06-.43-.38,0-.51.13a9.22,9.22,0,0,1-4.37,2.56,37.13,37.13,0,0,1-5.16,1.4,4.26,4.26,0,0,1-2.5,0,.8.8,0,0,0-.87.26,10.43,10.43,0,0,1-5.75,2.57,8,8,0,0,1-6-1.46,3.27,3.27,0,0,1-1.4-2.39c0-.11,0-.22.07-.29a.62.62,0,0,0,.46.1,1,1,0,0,1,1,.55,5.72,5.72,0,0,0,1.79,1.84,3.47,3.47,0,0,0,2.39.44,18.81,18.81,0,0,0,2.09-.53,5.65,5.65,0,0,0,1.71-.92.89.89,0,0,0,.23-.28,3.21,3.21,0,0,1,1.2-1.17A2.24,2.24,0,0,1,85.4,70c.5.1,1,.17,1.5.25a3.32,3.32,0,0,0,1.25-.14c1.48-.33,2.93-.77,4.37-1.23,2.43-.77,4.86-1.55,7.29-2.31a1.52,1.52,0,0,0,.65-.52,4.72,4.72,0,0,1,.7-.8l-.3-.07c.53-.09.88-.52,1.34-.74.08,0,.19,0,.25-.11h0a.59.59,0,0,1,.45,0h0c.58.27.59.77.52,1.3a4.84,4.84,0,0,1-1.94,2.16,1.48,1.48,0,0,0-.39.36c-1,1.06-2,2.11-3.1,3.11a11.81,11.81,0,0,1-2.6,1.71,4.49,4.49,0,0,1-.65.21c-1.53.44-3,1-4.52,1.57a11.41,11.41,0,0,0-3.91,2.83,4.69,4.69,0,0,0-.76,1.15c-.1.21-.2.31-.44.17a.89.89,0,0,0-1,0,.53.53,0,0,1-.3.07A.82.82,0,0,0,83,80a2.22,2.22,0,0,0,.27.63,9.18,9.18,0,0,1,.74,1.81,1.48,1.48,0,0,1,0,.93,5.21,5.21,0,0,0,.15,3.42,2.27,2.27,0,0,0,.35.65c.1.21.21.42.3.63a2.63,2.63,0,0,1,.22,1.07,1.59,1.59,0,0,0-.06.3,16.54,16.54,0,0,1-2.08,8,29,29,0,0,1-11.56,12.06,19.68,19.68,0,0,1-6.52,2.34,11.11,11.11,0,0,1-3.9,0,1.12,1.12,0,0,0-1.19.36s0,.07-.06.08c-.62.19-.83.78-1.2,1.21a14.11,14.11,0,0,1-5.41,3.7,18,18,0,0,1-5.19,1.35,21.81,21.81,0,0,1-4.12.07c-.75-.07-1.51-.11-2.26-.25a19.69,19.69,0,0,1-3.71-1c.14-.29.36-.1.56-.11,1,0,2,0,2.94,0a15.59,15.59,0,0,1,1.67-.1s0,0,0,0c.42.83,1.23.71,2,.81l.16,0c1.77.58,3.37,0,4.94-.72l.16,0c1-.47,2-.83,3-1.26a5.43,5.43,0,0,0,2.44-2,1.46,1.46,0,0,0,.25-1.11.48.48,0,0,1,.05-.45l2-1.54a2.61,2.61,0,0,0,.47-.41,3.77,3.77,0,0,0,1.08-3.18,1.53,1.53,0,0,0-2-1.48,2.31,2.31,0,0,0-1.94,1.45,5.7,5.7,0,0,0-.52,2.13A2.61,2.61,0,0,1,54,111.16a18.45,18.45,0,0,1-7.92,3.73,38.21,38.21,0,0,1-4,.59c-.38,0-.77-.09-1.16,0-.13,0-.23-.09-.23-.23,0-.33-.23-.48-.43-.68a3,3,0,0,1-.86-1.12c-.07-.19-.21-.39,0-.6a5.12,5.12,0,0,1,1,.09,10.82,10.82,0,0,0,1.88.21,6.54,6.54,0,0,0,1.32-.11,19.91,19.91,0,0,0,6.08-2.17,6.38,6.38,0,0,0,1.14-.85,14.78,14.78,0,0,1,1.87-1.38.87.87,0,0,0,.46-.65,5.69,5.69,0,0,1,2.91-4.06,4.11,4.11,0,0,1,3.87-.06,2,2,0,0,1,1.12,1.21,1,1,0,0,0,.57.63,6.71,6.71,0,0,0,2.61.79,3,3,0,0,1,.71.18,3.78,3.78,0,0,0,2,.12c.92-.17,1.84-.25,2.75-.4a6.78,6.78,0,0,0,1.11-.33,20.54,20.54,0,0,0,3.31-1.4,6.34,6.34,0,0,0,1.09-.91c.75-.64,1.52-1.26,2.22-2a18.14,18.14,0,0,0,2.77-3.58c.39-.65.82-1.27,1.19-1.93a16.83,16.83,0,0,0,1.66-4.38,19.08,19.08,0,0,0,.31-5,10,10,0,0,0-.25-1.61,4.6,4.6,0,0,1-.06-.52A1.12,1.12,0,0,1,83,83.91Z"/><path class="cls-5" d="M74.06,37a17.72,17.72,0,0,1,2.17-.43c1.1-.19,2.21-.2,3.32-.28a18.46,18.46,0,0,1,3.06.15c.11,0,.27,0,.34.1.34.58,1,.8,1.46,1.19a12.89,12.89,0,0,1,3.14,3.68,16.52,16.52,0,0,1,2,5.6c.16,1,.33,2,.41,2.93,0,.14,0,.28,0,.42s-.09.28-.32.27a31.86,31.86,0,0,0-3.91-.1,32.42,32.42,0,0,0-4.61.56,25.17,25.17,0,0,0-2.55.67c-.39.12-.37.11-.51-.26-.68-1.68-1.21-3.43-2-5-.35-.71-.65-1.45-1-2.17a19.42,19.42,0,0,0-4.16-6l-.24-.25a15.28,15.28,0,0,1,3-1C73.73,37,73.92,37.09,74.06,37Z"/><path class="cls-4" d="M45.33,53.29h-.84a3,3,0,0,1-.94.05,24,24,0,0,0-3.69.21.33.33,0,0,1-.25,0,20.07,20.07,0,0,0-2.71.34,6.66,6.66,0,0,0,1.39.69,27.68,27.68,0,0,1,3.44,1.84,1.39,1.39,0,0,1,.76,1.24,1.3,1.3,0,0,1-.73,1.15.82.82,0,0,0-.4.44,1,1,0,0,1-1,.65,2.27,2.27,0,0,0-1.38.44,26.75,26.75,0,0,0-3.45,2.33.92.92,0,0,0-.12.16,1.61,1.61,0,0,0,.56.15A30.61,30.61,0,0,0,39.3,63a1.67,1.67,0,0,1,.83.12,1.45,1.45,0,0,1,.88.93,3.23,3.23,0,0,0,.24.58,2.34,2.34,0,0,1,.27,1,36.32,36.32,0,0,1,.08,4.17c-.1,1,0,2.08-.16,3.11-.09.68,0,1.37-.16,2,.21.09.27,0,.34-.13a24.4,24.4,0,0,0,1.86-2,2,2,0,0,1,1.06-.76,2.17,2.17,0,0,0,.58-.36,1.24,1.24,0,0,1,1.59.21,1.06,1.06,0,0,1,.22,1.27.92.92,0,0,0,.06,1c.19-.1.19-.32.23-.48.37-1.36.74-2.72,1.07-4.08a1.3,1.3,0,0,1,2.09-.84c1.06.75,2.15,1.47,3.28,2.12a1.76,1.76,0,0,1,.68,1,.58.58,0,0,1-.13.49c-1-.82-1.88-1.63-2.82-2.43a7.44,7.44,0,0,0-.84-.64.8.8,0,0,0-1,0,.74.74,0,0,0-.14,1,.84.84,0,0,1,.08.51c-.19,1.72-.38,3.44-.58,5.15-.08.78-.18,1.55-.27,2.32a1.21,1.21,0,0,1-.14.55l-.94-1.24c-.35-.46-.7-.93-1.08-1.38-.58-.69-1-.7-1.67,0l-.18.18a.35.35,0,0,0-.3.33h0c-.05,0-.07,0-.06.08l-2.83,3.14L39.67,82c-.07.08-.12.18-.2.29a1.24,1.24,0,0,1-.16-.7L38.8,76c-.09-.93-.18-1.86-.26-2.79s-.53-1.11-1.31-.86-1.43.49-2.14.74l-1.57.54a.91.91,0,0,1,.2-.5l4.17-7.49a3.38,3.38,0,0,0,.37-.82,1,1,0,0,0-.54-1.23,3.24,3.24,0,0,0-1.06-.31l-4.87-.85c.12-.21.31-.25.47-.33l6.59-3.51a8.44,8.44,0,0,0,.86-.51,1,1,0,0,0,.37-1.3,1,1,0,0,0-1.24-.53,1.16,1.16,0,0,1-1-.07l-6.84-2.66-.14-.08c-.05-.06,0-.09,0-.1,1.18-.13,2.35-.28,3.52-.4l2.69-.25,4.69-.39c.44,0,.88-.07,1.32-.06s.9-.11,1.36-.1a.86.86,0,0,0,.83-.82,2.27,2.27,0,0,0,0-.58,6.74,6.74,0,0,1-.08-1,48.72,48.72,0,0,0-.3-5.54c-.08-.92,0-1.84,0-2.81a5.11,5.11,0,0,1,.93.93c.3.3.57.62.85.94-.26.39,0,.71.17,1a15.29,15.29,0,0,1,.73,1.46,21.09,21.09,0,0,1,1.34,4.19,6.62,6.62,0,0,1,.33,1.65A1.19,1.19,0,0,1,48,52.75a1.16,1.16,0,0,0-.56.08,5,5,0,0,1-1.54.36C45.7,53.31,45.49,53.17,45.33,53.29Z"/><path class="cls-5" d="M22.55,42.86a15.62,15.62,0,0,1,10.81-1.52,18.47,18.47,0,0,0-1.63,1.11,14,14,0,0,0-3.07,3.61,20.71,20.71,0,0,0-2.3,5.26c-.06.23-.13.34-.43.32a1.33,1.33,0,0,0-1.24.56,1.21,1.21,0,0,0,.53,1.86.57.57,0,0,1,.41.74,15,15,0,0,0-.12,2.59,12,12,0,0,0,.2,2.15c.07.39,0,.45-.36.35a8.64,8.64,0,0,0-4.54.16,5.12,5.12,0,0,0-1.15.36.62.62,0,0,1-.77-.14,8.47,8.47,0,0,1-1.51-1.76A9.74,9.74,0,0,1,16,54.4a12.25,12.25,0,0,1,1.33-7.16,3.43,3.43,0,0,1,.68-1,21,21,0,0,1,3.59-2.85c.07-.06.18,0,.24-.12h0a3.7,3.7,0,0,0,.33-.21h0c.07-.06.17,0,.22-.11h0C22.4,43,22.52,43,22.55,42.86Z"/><path class="cls-5" d="M77,52.06c0,.21-.12.28-.27.35-.58.26-1.16.53-1.71.84a12.74,12.74,0,0,0-4,3.43c-.26.35-.3.35-.62.09a31.46,31.46,0,0,1-2.93-2.6,25.57,25.57,0,0,1-2.3-2.89,39.32,39.32,0,0,1-3.64-6.2c-.29-.62-.29-.62.18-1.1a24.55,24.55,0,0,1,6.86-5.06c.58-.29.72-.28,1.17.15a15.82,15.82,0,0,1,2.76,3.39c1.15,1.93,2,4,3,6,.52,1,.92,2.14,1.37,3.21C77,51.79,77,51.93,77,52.06Z"/><path class="cls-6" d="M89.64,38.13a15.91,15.91,0,0,1,2.88,1.31,28.09,28.09,0,0,1,4.13,2.77,28.53,28.53,0,0,1,4,4,1.26,1.26,0,0,1,.25.73c.1,1.07.23,2.14.23,3.22a6.25,6.25,0,0,1-.83,3c-.23.43-.26.44-.69.22A28.05,28.05,0,0,0,92,50.88a6.09,6.09,0,0,1-.73-.1.28.28,0,0,1-.23-.3c0-.32,0-.64,0-.95a18.91,18.91,0,0,0-2.13-8.43,14,14,0,0,0-2.07-2.94c-.37-.39-.81-.73-1.22-1.09a.2.2,0,0,1-.11-.22A19.8,19.8,0,0,1,89.39,38C89.46,38.09,89.56,38.08,89.64,38.13Z"/><path class="cls-1" d="M39.41,112.84a2.47,2.47,0,0,0,1.21,1.76c.34.22.36.27.18.78.3,0,.59,0,.88,0a29.26,29.26,0,0,0,5.26-.84,18.35,18.35,0,0,0,6.4-3,9.29,9.29,0,0,0,1.13-1,2.36,2.36,0,0,0,.61-1.63,4.41,4.41,0,0,1,.66-2.15,2.63,2.63,0,0,1,2.75-1.16,1.53,1.53,0,0,1,1.14,1.32,6,6,0,0,1,0,1.58,2.77,2.77,0,0,1-1.13,1.9c.06-.27.39-.43.31-.76.4-.27.3-.77.52-1.11a1.34,1.34,0,0,0,.22-.68,2.07,2.07,0,0,0-.91-1.72.92.92,0,0,0-1.11-.14c-.14.07-.31.08-.45.15a1.59,1.59,0,0,0-.91.76c-.2.47-.62.86-.58,1.44a.46.46,0,0,1-.23.39.29.29,0,0,0-.08.46.49.49,0,0,1,0,.71c-.21.22,0,.61-.33.74a1.57,1.57,0,0,0-.61.56A7.82,7.82,0,0,1,52,112.88a19.57,19.57,0,0,1-6.49,2.37,5.48,5.48,0,0,1-1.76.2c-.1,0-.16,0-.24.09-.39.19-.39.19-.75-.08-.15,0-.2.22-.35.27s-.38.12-.54,0-.55-.21-.9,0a2,2,0,0,1-1.78,0,.71.71,0,0,0-.73,0c-.39.25-.56.29-.86,0s-.24-.16-.38,0a.25.25,0,0,1-.28.1c-1.18-.34-2.41-.48-3.55-.93a7.25,7.25,0,0,1-1.78-1,2.77,2.77,0,0,1-.85-.75.27.27,0,0,0-.08-.07A5.26,5.26,0,0,1,29,110.84a12.46,12.46,0,0,1-.57-1.16,8,8,0,0,1-.55-1.91.13.13,0,0,1,0-.06.48.48,0,0,0-.16-.76c-.11-.07-.05-.26,0-.38a.83.83,0,0,0,0-1.12c-.16-.24-.15-.43.08-.59s.1-.1.07-.24a.9.9,0,0,1,.26-1,.27.27,0,0,0,.08-.29.75.75,0,0,1-.07-.36c.41.11.33.45.31.74s-.15.83-.2,1.25a9,9,0,0,0,1.36,6,8.8,8.8,0,0,0,6.33,4,19.91,19.91,0,0,0,4.07.33c.09,0,0-.11,0,0s0,0,0,0,0,0,0,0A3.86,3.86,0,0,1,38.6,114a6.7,6.7,0,0,1-.68-1.55,5.21,5.21,0,0,1-.2-1.52,3.08,3.08,0,0,0,0-.53,4.56,4.56,0,0,1,.09-2.2c.14-.63.08-.75-.51-1s-1.21-.56-1.81-.86A5.11,5.11,0,0,1,33.72,105a1.21,1.21,0,0,0-.79-.46,2,2,0,0,1-1.3-.84,1.51,1.51,0,0,1-.17-1.78,1.7,1.7,0,0,1,1.69-.88,1.74,1.74,0,0,1,1.61,1.17,1,1,0,0,0,.43.52c1.29.73,2.48,1.61,3.82,2.26a.51.51,0,0,0,.57,0c2.56-1.43,5-3,7.44-4.66a2,2,0,0,1,.81-.38,2.19,2.19,0,0,1,.36,0,2.65,2.65,0,0,1,1.94,1.67,1.63,1.63,0,0,1-.55,1.71,5.14,5.14,0,0,1-.74.51c-.85.5-1.72,1-2.61,1.4-1.68.78-3.27,1.74-4.93,2.55a5.29,5.29,0,0,1-1.46.6.3.3,0,0,0-.26.23,4.68,4.68,0,0,0-.38,1.85c0,.63,0,1.27.08,1.9A1.1,1.1,0,0,0,39.41,112.84Z"/><path class="cls-5" d="M27.49,51.64A9.76,9.76,0,0,1,28,50a17.66,17.66,0,0,1,2.74-4.74,9.31,9.31,0,0,1,3.86-3l.15,0a2.2,2.2,0,0,1,1.92.1A19.79,19.79,0,0,1,40.4,44.8a22.42,22.42,0,0,1,1.75,1.65,7.2,7.2,0,0,0-1.23,1.17,6.13,6.13,0,0,0-1.17,2.52.49.49,0,0,1-.48.45L38,50.74l-3.62.41c-.47.05-1,.07-1.42.11-1.54.1-3.08.34-4.63.35C28.07,51.61,27.79,51.76,27.49,51.64Z"/><path class="cls-5" d="M100.86,75.26c1,.45,2,.66,3,1a3.49,3.49,0,0,1,1.11.63c-.54,0-1,.1-1.44.1a13.52,13.52,0,0,0-3.63.6,26.83,26.83,0,0,0-6.5,2.76,9.84,9.84,0,0,0-3.09,3,3.62,3.62,0,0,0-.5,1.87,3.1,3.1,0,0,1-.53,1.25.76.76,0,0,1-.65.29,1.84,1.84,0,0,1-2-1.64,1,1,0,0,0-.25-.67c-.13-.12-.08-.26,0-.39a3.78,3.78,0,0,0,.16-1.6A4.83,4.83,0,0,1,88,78.73a12,12,0,0,1,4.2-3,13.32,13.32,0,0,1,2.5-.65,16.88,16.88,0,0,1,4-.21,10.62,10.62,0,0,1,1.57.23C100.39,75.35,100.63,75.26,100.86,75.26Z"/><path class="cls-5" d="M57,50.64a31.35,31.35,0,0,1,3.41-5.16,2.63,2.63,0,0,1,.41.82,41.22,41.22,0,0,0,3.7,6.23,28.79,28.79,0,0,0,3.36,3.86A13.81,13.81,0,0,0,69.81,58c.16.11.28.23.19.43a9.78,9.78,0,0,0-.53,1.88,16.12,16.12,0,0,1-2-.89,23.54,23.54,0,0,1-4.31-3,12.69,12.69,0,0,1-2.71-3.09,4.62,4.62,0,0,1-.44-1,1.21,1.21,0,0,1,0-.68,1.65,1.65,0,0,0,.06-.63.91.91,0,0,0-1.46-.77,1.6,1.6,0,0,1-1,.34,1.73,1.73,0,0,0-.54.21C57,50.78,57,50.75,57,50.64Z"/><path class="cls-5" d="M18.2,61.08a7.29,7.29,0,0,1-1,.77,5.25,5.25,0,0,0-1,1.13,24.85,24.85,0,0,0-1.9,3.17c-.14.31-.17.32-.48.14A3.4,3.4,0,0,1,12.6,65a9.86,9.86,0,0,1-1.44-4.27,4.55,4.55,0,0,1,.18-1.41,26.32,26.32,0,0,1,2.73-7.75,11.16,11.16,0,0,1,1.06-1.7C14.32,54.19,15.06,58,18.2,61.08Z"/><path class="cls-4" d="M38.05,112.39c.09.25.19.49.28.73a4.81,4.81,0,0,0,1.94,2.22s-.07.06-.09.06a18,18,0,0,1-6.74-1.06,5.69,5.69,0,0,1-1.63-1,2.21,2.21,0,0,0-.84-.54c-.13,0-.19-.15-.27-.24a10.13,10.13,0,0,1-2.48-4.95,9.44,9.44,0,0,1,.11-3.78c.07-.31.2-.66-.14-.92a.94.94,0,0,0-.63-1,10.18,10.18,0,0,1-2.91-2.31c.05-.14.14-.14.25-.06a4.53,4.53,0,0,1,.4.26,2.11,2.11,0,0,0,.84.4,6.76,6.76,0,0,1,2.93,1.46,2,2,0,0,1,.76,2.1.58.58,0,0,0,.19.64.56.56,0,0,1,.17.43c.21.07.14.28.21.43h0a14.08,14.08,0,0,0,1,2.43l.43.64a.52.52,0,0,0,.1.11h0l.31.31a8.58,8.58,0,0,0,4.67,3.41A4,4,0,0,0,38.05,112.39Z"/><path class="cls-2" d="M31.57,64.65a19.75,19.75,0,0,0-8.69,7.85,38.67,38.67,0,0,0-2.12,3.9c-.56.22-1.13.49-1.69.66a21,21,0,0,1-5.51,1c-.66,0-1.3-.13-2-.13-.22,0-.48,0-.51-.35,1.71-.75,3.39-1.57,5-2.44a11.88,11.88,0,0,0,1.92-1.2c1.86-1.49,3.81-2.86,5.77-4.21,1.26-.88,2.38-1.94,3.58-2.89.62-.5,1.25-1,1.86-1.49s.51-.46.46-1.09c.61.1,1.22.15,1.81.3Q31.65,64.56,31.57,64.65Z"/><path class="cls-5" d="M26.86,54.66c3,1.13,6,2,9,3-.32.19-.58.36-.85.5-2,1.11-4.1,2.2-6.14,3.32-.22.12-.38.14-.56,0a5.23,5.23,0,0,0-.94-.68.78.78,0,0,1-.39-.53,11.48,11.48,0,0,1-.35-4.08A5.42,5.42,0,0,1,26.86,54.66Z"/><path class="cls-4" d="M11.1,77.55a.47.47,0,0,0,.41.21c.59,0,1.16.1,1.74.11A18.44,18.44,0,0,0,18,77.2c.25-.07.51-.12.77-.18a1.75,1.75,0,0,0,.68-.28,1.35,1.35,0,0,1,1.18-.3s.1,0,.15,0c-.46,1.19-.91,2.38-1.27,3.61-.27.07-.2.43-.44.52a3.23,3.23,0,0,0-1.45,0,2.55,2.55,0,0,1-1.42-.21c-.12-.22-.31-.21-.51-.14a29.93,29.93,0,0,1-3.36-1.09.89.89,0,0,0-.73,0,2.83,2.83,0,0,1-2.21-.05.71.71,0,0,1-.45-.71c0-.34.26-.51.57-.63a1.47,1.47,0,0,1,.62-.07A3,3,0,0,0,11.1,77.55Z"/><path class="cls-5" d="M19,91.43a14.6,14.6,0,0,0-2-1,3.9,3.9,0,0,0-1.84-.57,12,12,0,0,1-1.88-.26,6.93,6.93,0,0,0-3,0l-1.34.26A2.63,2.63,0,0,1,9.68,89a11.86,11.86,0,0,1,4.57-2.11,1.52,1.52,0,0,1,.21,0,11.09,11.09,0,0,1,3.35.16l.26,0c.55,0,.54,0,.56.55A25.82,25.82,0,0,0,19,91.14.32.32,0,0,1,19,91.43Z"/><path class="cls-5" d="M103.91,51.07a26,26,0,0,1,2.68,8,1.88,1.88,0,0,1-.47-.58,15.39,15.39,0,0,0-4.26-3.9l-.22-.15c-.42-.27-.41-.27-.21-.69s.31-.68.46-1a6.32,6.32,0,0,0,.38-3.52,4,4,0,0,0-.11-.9,9.17,9.17,0,0,1,1.57,2.45C103.79,50.86,103.78,51,103.91,51.07Z"/><path class="cls-3" d="M108.51,64.74c.15-.33,0-.69.14-1.09.24.9.4,1.77.56,2.64a50.34,50.34,0,0,1,.78,9.88c0,.18.08.39-.12.53a7.88,7.88,0,0,0-1.83-.8c-.45-.18-.44-.17-.36-.64a12,12,0,0,0,.23-2.25,19.07,19.07,0,0,1,.31-2.36,14.31,14.31,0,0,0,.11-3.27,6.47,6.47,0,0,1,.09-1.32C108.47,65.62,108.5,65.19,108.51,64.74Z"/><path class="cls-2" d="M50.21,117.29a10.83,10.83,0,0,1-3.23,1,2.14,2.14,0,0,1-.83-.09,4,4,0,0,1-1-.22s-.08-.08-.12,0c-.45,0-.89-.14-1.34-.13a.46.46,0,0,1-.46-.36,2,2,0,0,0-.22-.47h0c.17-.1.37,0,.53-.08a32.56,32.56,0,0,0,6.21-1.6l1.6-.65c.18,0,.18.05.14.16a1.61,1.61,0,0,1-.19.31l-.07.11a1,1,0,0,1-.1.17.41.41,0,0,1-.07.11,1.11,1.11,0,0,0-.23.41.75.75,0,0,1-.07.12C50.47,116.47,50.45,116.93,50.21,117.29Z"/><path class="cls-5" d="M10.92,64.64c.33.53.56,1,.87,1.39a3.62,3.62,0,0,0,1.71,1.36c.22.06.29.18.21.39l-.15.5a10.05,10.05,0,0,0-.33,3.62,6.76,6.76,0,0,0,.31,1.33.51.51,0,0,1-.57.6c-.13,0-.16-.18-.21-.29a27.6,27.6,0,0,1-.91-2.65A22.69,22.69,0,0,1,11,65.65c0-.16-.05-.32-.06-.47S10.92,64.89,10.92,64.64Z"/><path class="cls-2" d="M56,112.3a2.09,2.09,0,0,1-.57,2.15,6.19,6.19,0,0,1-2.62,1.78,26.27,26.27,0,0,0-2.52,1,1.94,1.94,0,0,1,.42-1.26h0a1.92,1.92,0,0,1,.32-.53h0c.06,0,0-.15.1-.21h0c.33-.6,1-.79,1.48-1.2s1.07-.74,1.63-1a16.21,16.21,0,0,1,1.55-.63.41.41,0,0,1,.11-.07Z"/><path class="cls-7" d="M46.82,79.67a5.1,5.1,0,0,1-1.41.82,37.19,37.19,0,0,1-3.52,1.45,1.1,1.1,0,0,1-.36.07c.86-1.09,1.85-2.07,2.75-3.13l1-1.2Z"/><path class="cls-5" d="M40.58,50.37a5.34,5.34,0,0,1,.88-1.73,3.2,3.2,0,0,1,1-1,2.64,2.64,0,0,1,.38-.18c.12-.05.21,0,.22.12a17.16,17.16,0,0,0,.32,2.25c0,.18,0,.29-.24.32-.8.09-1.6.2-2.4.31A1.37,1.37,0,0,1,40.58,50.37Z"/><path class="cls-8" d="M34.65,67.41a.41.41,0,0,0-.37-.24,11.16,11.16,0,0,0-1.73-.1c-.47,0-.95,0-1.42,0a9.4,9.4,0,0,1,1.71-.92,4.92,4.92,0,0,0,1.93-1c.07-.08.2,0,.3,0l.85.15Z"/><path class="cls-9" d="M37.05,77.66c-.71-.84-1.3-1.78-2-2.65a15.11,15.11,0,0,1,1.66-.66Z"/><path class="cls-10" d="M24.9,99.6l-.25.06A15.25,15.25,0,0,1,22,95.86a.67.67,0,0,1-.1-.3c.17,0,.21.18.29.29.57.84,1.14,1.69,1.73,2.52C24.21,98.8,24.57,99.19,24.9,99.6Z"/><path class="cls-11" d="M57.93,107.44a1.64,1.64,0,0,1-.51,1.81s-.09,0-.1,0A1.49,1.49,0,0,1,57.93,107.44Z"/><path class="cls-12" d="M73.81,60.61c0,.21.27.33.23.6a15.41,15.41,0,0,0-1.79-.08A3,3,0,0,1,73.81,60.61Z"/><path class="cls-13" d="M57.93,107.44a1.74,1.74,0,0,0-.51,1.81.53.53,0,0,1-.43.29,2.2,2.2,0,0,0,.1-.84,2.22,2.22,0,0,1,.34-1.09C57.58,107.36,57.69,107.34,57.93,107.44Z"/><path class="cls-14" d="M84.75,88.05c-.16-.19-.12-.43-.19-.64.14.23.41.23.62.33.06.12.07,0,.1,0s.17,0,.2.11.09.29.13.43c0,.31-.25,0-.33.11l-.1,0C85,88.31,85,88,84.75,88.05Z"/><path class="cls-15" d="M52.64,114.08a.28.28,0,0,1-.14.21,9.27,9.27,0,0,0-1.34,1,.46.46,0,0,1,.19-.34c.06-.07.11-.13,0-.2A8.36,8.36,0,0,1,52.64,114.08Z"/><path class="cls-16" d="M74.59,62.86a.56.56,0,0,1-.44.06c0-.1.19-.24-.09-.21-.11,0-.22-.06-.33-.1h0c-.26-.25-.59,0-.87-.12a2.93,2.93,0,0,1,1.5,0s0,.08.07.12.15.06.19.14A.12.12,0,0,1,74.59,62.86Z"/><path class="cls-17" d="M84.75,88.05c.08-.06.08-.33.26-.09a.78.78,0,0,1,.17.43v.08h0c-.12.08-.07.17,0,.27a.31.31,0,0,1-.07.37C85.1,88.71,84.77,88.43,84.75,88.05Z"/><path class="cls-18" d="M19.05,80.53a1.25,1.25,0,0,1,.27-.61c.12-.16.14,0,.17.09a1.4,1.4,0,0,1-.1.46C19.32,80.74,19.18,80.62,19.05,80.53Z"/><path class="cls-19" d="M103.41,65.59a5.74,5.74,0,0,0-.13-.83c0-.24-.3-.28-.39-.47C103.5,64.49,103.68,64.93,103.41,65.59Z"/><path class="cls-20" d="M15.67,80.2c.31-.29.39-.27.51.14A1,1,0,0,1,15.67,80.2Z"/><path class="cls-21" d="M100.86,75.26a1.83,1.83,0,0,1-.82.07l.17-.19A3.71,3.71,0,0,1,100.86,75.26Z"/><path class="cls-17" d="M85.28,88.37c.06-.19.26,0,.33-.11a1,1,0,0,1,.12.16.13.13,0,0,1,0,.19.12.12,0,0,1-.14,0Z"/><path class="cls-22" d="M93.94,38.26l.15-.14.3.23c0,.11,0,.16-.12.12A.59.59,0,0,1,93.94,38.26Z"/><path class="cls-23" d="M44.31,76.85c0-.32.06-.37.3-.33A.8.8,0,0,1,44.31,76.85Z"/><path class="cls-24" d="M94.27,38.47l.12-.12c.1.1.34.1.21.33C94.49,38.62,94.35,38.59,94.27,38.47Z"/><path class="cls-25" d="M57,50.64l.11.13a.56.56,0,0,0-.05.08s-.11.11-.17.07,0-.12,0-.17S57,50.68,57,50.64Z"/><path class="cls-26" d="M21.6,79.25h-.13a.41.41,0,0,1,.12-.33c.17.11.05.22,0,.33Z"/><path class="cls-27" d="M103.91,51.07c-.2,0-.19-.17-.18-.31A.45.45,0,0,1,103.91,51.07Z"/><path class="cls-28" d="M64,62.18,63.87,62a.21.21,0,0,1,.19,0s.11.05.06.11A.11.11,0,0,1,64,62.18Z"/><path class="cls-19" d="M102.89,64.29l-.45,0A.34.34,0,0,1,102.89,64.29Z"/><path class="cls-29" d="M22.13,43.12a.33.33,0,0,1-.33.21A.32.32,0,0,1,22.13,43.12Z"/><path class="cls-30" d="M74.06,37c-.13.16-.31.1-.47.11A.53.53,0,0,1,74.06,37Z"/><path class="cls-31" d="M105.15,71.35c-.08-.12-.11-.22,0-.33A.23.23,0,0,1,105.15,71.35Z"/><path class="cls-32" d="M85.28,87.72a.78.78,0,0,1,0,.14s.06.11,0,.13-.1,0-.11-.11a.66.66,0,0,1,0-.14Z"/><path class="cls-33" d="M30.94,53.31a.1.1,0,0,1,0,.1c-.06,0-.15,0-.14-.08S30.88,53.28,30.94,53.31Z"/><path class="cls-19" d="M102.45,64.3c0,.11-.15.11-.25.11A.23.23,0,0,1,102.45,64.3Z"/><path class="cls-34" d="M21.81,43.32c0,.11-.14.12-.24.12A.26.26,0,0,1,21.81,43.32Z"/><path class="cls-35" d="M31.57,64.65l0-.12c.07,0,.18,0,.19,0S31.64,64.64,31.57,64.65Z"/><path class="cls-36" d="M89.64,38.13a.24.24,0,0,1-.25-.1A.23.23,0,0,1,89.64,38.13Z"/><path class="cls-37" d="M22.34,43c0,.09-.12.11-.22.11A.21.21,0,0,1,22.34,43Z"/><path class="cls-38" d="M22.55,42.86c0,.12-.11.15-.21.15S22.48,42.9,22.55,42.86Z"/><path class="cls-17" d="M85.18,88.47s0,0,0,0,0,0,0,0Z"/><path class="cls-16" d="M73.73,62.61l0,0a0,0,0,0,1,0,0h0Z"/><path class="cls-4" d="M55.93,112.34c0,.06,0,.08-.11.07A.08.08,0,0,1,55.93,112.34Z"/><path class="cls-23" d="M44.25,76.92c0-.08,0-.08.06-.08A.08.08,0,0,1,44.25,76.92Z"/><path class="cls-1" d="M56.33,93.22A10.56,10.56,0,0,1,57,82.59a12,12,0,0,1,7.7-5.6,12.29,12.29,0,0,1,11.54,2.92,8.24,8.24,0,0,1,1.29,1.47.3.3,0,0,0,.43.12,2.94,2.94,0,0,1,1-.25,1.11,1.11,0,0,1,1.12,1.5,2.34,2.34,0,0,1-.8,1.15.51.51,0,0,0-.2.62,11.17,11.17,0,0,1-2.35,10.69,12.13,12.13,0,0,1-7.54,4.19,12.74,12.74,0,0,1-3.32.21,12.07,12.07,0,0,1-7.73-3.48.46.46,0,0,1-.07-.07c-.39-.4-.38-.39-.83-.1a5.09,5.09,0,0,1-1,.53,1.85,1.85,0,0,1-1.44-.06,1.3,1.3,0,0,1-.48-2.17,2.85,2.85,0,0,1,1-.7C55.69,93.43,56,93.33,56.33,93.22Z"/><path class="cls-1" d="M72.9,70.14a6.7,6.7,0,0,0,.3,1.17,2.37,2.37,0,0,0,.87,1.23,8,8,0,0,0,5.22,1.71,11.18,11.18,0,0,0,4-1c.5-.22,1-.47,1.47-.73a3.65,3.65,0,0,0,1.07-.85,1,1,0,0,1,1.39-.26,1.39,1.39,0,0,0,.78.06,14.63,14.63,0,0,0,3.57-.68c1.1-.36,2.22-.65,3.33-1a10.85,10.85,0,0,0,3.21-1.69,2.57,2.57,0,0,0,.54-.5c.39-.51.39-.51,1.05-.42.07.19,0,.34-.12.49a5,5,0,0,1-1.12,1.59A16.74,16.74,0,0,1,94.74,72a12.57,12.57,0,0,1-1.36.57A4.29,4.29,0,0,1,92.2,73a1.57,1.57,0,0,0-1.24.71,3.65,3.65,0,0,1-1.27.8,24,24,0,0,1-3,1.25,20.1,20.1,0,0,1-2,.58,1.11,1.11,0,0,1-1-.16.59.59,0,0,1-.45-.46c-.06-.2-.21-.07-.3-.15l-1.69.5-.22,0c-.1.06-.23,0-.33.07a18.24,18.24,0,0,1-1.95.13,9.19,9.19,0,0,1-5.32-1.94,4.85,4.85,0,0,1-1.78-4.51,3.26,3.26,0,0,1,.16-.88,1.32,1.32,0,0,1,.27-.51c.14-.14.3-.27.51-.18s.18.28.17.45A4.54,4.54,0,0,0,72.9,70.14Z"/><path class="cls-1" d="M22.21,81.05a8.29,8.29,0,0,1,.88-1.25,3.2,3.2,0,0,1,4.44-.4,7.62,7.62,0,0,1,1.91,2.17,14.59,14.59,0,0,1,1.79,5.1,20.19,20.19,0,0,1,.21,5.65A8.72,8.72,0,0,1,30.72,95c-.16.38-.16.38.15.68a1.21,1.21,0,0,1-.31,2,1.35,1.35,0,0,1-1.08,0,.64.64,0,0,0-.72.08,2.9,2.9,0,0,1-3.05.28A4.89,4.89,0,0,1,24,96.7a12.32,12.32,0,0,1-2.37-4.91,18.52,18.52,0,0,1-.54-6.46A13.89,13.89,0,0,1,22,81.64a1.82,1.82,0,0,0,.07-.25C22.09,81.28,22.07,81.12,22.21,81.05Z"/><path class="cls-2" d="M38.05,112.39a.62.62,0,0,1-.69.11,8.2,8.2,0,0,1-4.7-2.93,3.77,3.77,0,0,1-.58-.75c.46,0,.69.39,1.07.53h0a9,9,0,0,0,1.86.8,5.85,5.85,0,0,1,1.53.79h0c.29.17.47.51.85.53.15.07.27.06.3-.13s0-.3,0-.45Z"/><path class="cls-39" d="M39.61,53.5a14.88,14.88,0,0,1,4-.31,2.59,2.59,0,0,1,.83.1c-.08.12-.21.15-.32.21-.49.06-1,.21-1.46.27a5.66,5.66,0,0,0-1.3,0A7.91,7.91,0,0,1,39.61,53.5Z"/><path class="cls-40" d="M80.2,95.68a.86.86,0,0,1,.14-.5,11,11,0,0,0,1-2.39c.35-1.18.89-2.3,1.13-3.51.11-.55.22-1.09.35-1.64A3.11,3.11,0,0,1,82.67,89a25.55,25.55,0,0,1-.93,3c-.24.66-.42,1.34-.68,2a9,9,0,0,1-.86,1.69Z"/><path class="cls-41" d="M30.4,105.32c-.15-.11-.13-.3-.21-.43.18-.17.09-.4.13-.6.09-.41.17-.82.29-1.22a2.58,2.58,0,0,0-.17-1.89,1.17,1.17,0,0,1-.06-.2s.08,0,.12,0a2.92,2.92,0,0,1,.19,2.33,4.08,4.08,0,0,0-.19,1.29A1.28,1.28,0,0,1,30.4,105.32Z"/><path class="cls-40" d="M83,83.91c0,.3.15.56.1.86-.15.14-.09.33-.09.5,0,.56,0,1.12,0,1.69,0,.13.06.28-.13.41a2.24,2.24,0,0,1-.06-1.17,14.26,14.26,0,0,0,.09-1.84C82.86,84.21,82.81,84,83,83.91Z"/><path class="cls-42" d="M36.54,110.94a26.26,26.26,0,0,0-2.94-1.26c-.17-.08-.37-.13-.45-.33,1,.42,2,.69,2.92,1.19A.92.92,0,0,1,36.54,110.94Z"/><path class="cls-43" d="M55.53,53.72c1,.55,2.09.69,3,1.22A9.66,9.66,0,0,1,55.53,53.72Z"/><path class="cls-44" d="M51.9,51.38c-.15,0-.25-.1-.35-.2L49.6,49.24a.6.6,0,0,1-.07-.14,15.62,15.62,0,0,1,2.38,2.28Z"/><path class="cls-41" d="M31.35,107.75a5.51,5.51,0,0,1-1-2.43c.27.23.25.6.37.89A6.67,6.67,0,0,1,31.35,107.75Z"/><path class="cls-45" d="M28.06,99.07a4.58,4.58,0,0,1,1.62,1,7.38,7.38,0,0,1-1.62-1Z"/><path class="cls-46" d="M79.56,96.74a5.8,5.8,0,0,1-1,1.53,4.75,4.75,0,0,1,1-1.53Z"/><path class="cls-42" d="M33.15,109.35a1.33,1.33,0,0,1-.56-.27c-.17-.1-.29-.26-.51-.26a.32.32,0,0,1-.2-.32A4.16,4.16,0,0,1,33.15,109.35Z"/><path class="cls-47" d="M42.79,53.7l1.26-.28s.08,0,.12.08a4.31,4.31,0,0,1-1.27.32S42.79,53.77,42.79,53.7Z"/><path class="cls-44" d="M55.51,53.72A5.76,5.76,0,0,1,54,53h0A3.31,3.31,0,0,1,55.51,53.72Z"/><path class="cls-26" d="M21.6,79.25a3,3,0,0,1,.32,1.27h0a2.25,2.25,0,0,1-.32-1.27Z"/><path class="cls-48" d="M42.79,53.7l.11.12H41.41c.09-.14.24-.1.38-.1Z"/><path class="cls-46" d="M74.16,102.25a1.83,1.83,0,0,1-.85.63,1.46,1.46,0,0,1,.85-.63Z"/><path class="cls-44" d="M37.39,111.47c0,.06-.11.1-.17.06a1.76,1.76,0,0,1-.68-.59C36.89,111,37.08,111.33,37.39,111.47Z"/><path class="cls-49" d="M74.59,62.86l0-.16s0,0,0-.06l0,0a.72.72,0,0,1,.41-.1q.3.15,0,.3Z"/><path class="cls-44" d="M53.18,52.44A2.7,2.7,0,0,1,54,53h0a1.18,1.18,0,0,1-.85-.53Z"/><path class="cls-50" d="M70.24,105.11a1.32,1.32,0,0,1-.74.53h0a1.34,1.34,0,0,1,.75-.53Z"/><path class="cls-51" d="M71,104.58a1.29,1.29,0,0,1-.74.53h0a1.29,1.29,0,0,1,.74-.53Z"/><path class="cls-51" d="M71.72,104.05a1.29,1.29,0,0,1-.74.53h0a1.29,1.29,0,0,1,.74-.53Z"/><path class="cls-51" d="M72.57,103.41a1.29,1.29,0,0,1,.74-.53,1.24,1.24,0,0,1-.74.53Z"/><path class="cls-26" d="M22.21,81.05a.63.63,0,0,1-.18.34c0-.29-.15-.57-.11-.87h0C22.11,80.65,22.08,80.9,22.21,81.05Z"/><path class="cls-52" d="M75,62.82a.22.22,0,0,0,0-.3.85.85,0,0,1,.47,0C75.37,62.77,75.19,62.8,75,62.82Z"/><path class="cls-51" d="M77.05,100a1.38,1.38,0,0,1-.46.47C76.72,100.15,76.72,100.15,77.05,100Z"/><path class="cls-53" d="M52.54,51.91a1.09,1.09,0,0,1,.64.53h0c-.31-.06-.46-.31-.63-.54Z"/><path class="cls-53" d="M51.91,51.38c.31.06.46.3.63.53h0c-.31,0-.47-.29-.64-.53Z"/><path class="cls-51" d="M75.43,101.29a1.15,1.15,0,0,1,.41-.41c-.1.28-.1.28-.41.41Z"/><path class="cls-46" d="M77.82,99.2c0-.2.15-.3.34-.42C78.13,99,78,99.11,77.82,99.2Z"/><path class="cls-40" d="M80.2,95.68a.55.55,0,0,1-.26.44.44.44,0,0,1,.26-.44Z"/><path class="cls-43" d="M30.5,101h-.11a.49.49,0,0,1-.29-.39A.89.89,0,0,1,30.5,101Z"/><path class="cls-46" d="M69.18,105.85a.52.52,0,0,1-.39.3c.1-.2.2-.29.39-.3Z"/><path class="cls-45" d="M28.06,99.07c-.17,0-.28-.11-.4-.29a.46.46,0,0,1,.4.29Z"/><path class="cls-54" d="M71.72,104.05a.5.5,0,0,1,.42-.32h0a.53.53,0,0,1-.43.32Z"/><path class="cls-55" d="M72.14,103.73a.52.52,0,0,1,.43-.32h0a.5.5,0,0,1-.42.32Z"/><path class="cls-56" d="M74.58,101.93a.5.5,0,0,1-.42.32h0a.5.5,0,0,1,.42-.32Z"/><path class="cls-46" d="M75,101.61a.52.52,0,0,1,.43-.32h0a.5.5,0,0,1-.42.32Z"/><path class="cls-55" d="M75,101.61a.53.53,0,0,1-.43.32h0a.52.52,0,0,1,.42-.32Z"/><path class="cls-39" d="M45.33,53.29c.15-.16.35-.09.53-.1C45.71,53.36,45.51,53.27,45.33,53.29Z"/><path class="cls-46" d="M69.18,105.85a.31.31,0,0,1,.31-.21h0a.32.32,0,0,1-.32.21Z"/><path class="cls-57" d="M79.56,96.74a.66.66,0,0,1,0-.15s.09-.11.11-.1,0,.11,0,.16a.43.43,0,0,1-.13.09Z"/><path class="cls-4" d="M80.71,76.16a.33.33,0,0,1,.33-.07A.28.28,0,0,1,80.71,76.16Z"/><path class="cls-58" d="M74.58,62.62a.22.22,0,0,1,0,.08c-.07,0-.09.16-.18.07s0-.12,0-.16Z"/><path class="cls-42" d="M31.88,108.5l-.1-.11Z"/><path class="cls-59" d="M100.75,100a1.05,1.05,0,0,1-.46.8A2.09,2.09,0,0,1,100.75,100Z"/><path class="cls-60" d="M83,75.57c.16-.08.32-.17.4.09s.24.34.35.52c-.08.11-.2.3-.3.1S83,75.86,83,75.57Z"/><path class="cls-61" d="M23.36,45.37a.17.17,0,0,1-.12.15.08.08,0,0,1-.12-.05c0-.08.06-.11.12-.14S23.34,45.29,23.36,45.37Z"/><path class="cls-62" d="M30.65,48.05l0,0q-.08,0,0-.06a0,0,0,0,1,0,0Z"/><path class="cls-50" d="M20.75,74A5.91,5.91,0,0,1,21.88,73c.14-.11.26-.28.48-.32A4.72,4.72,0,0,1,20.75,74Z"/><path class="cls-50" d="M18.52,75.54a2.55,2.55,0,0,1,1-.63h0a1.69,1.69,0,0,1-.95.64Z"/><path class="cls-56" d="M16.19,76.92a1.64,1.64,0,0,1,.87-.48,1.76,1.76,0,0,1-.86.48Z"/><path class="cls-50" d="M20.33,74.27a1.56,1.56,0,0,1-.85.64h0a1.92,1.92,0,0,1,.85-.64Z"/><path class="cls-50" d="M18.53,75.55a.85.85,0,0,1-.64.42h0a1.06,1.06,0,0,1,.63-.43Z"/><path class="cls-57" d="M17.89,76c-.09.19-.26.25-.53.32a.69.69,0,0,1,.53-.32Z"/><path class="cls-56" d="M16.2,76.92c-.09.19-.26.25-.54.33a.75.75,0,0,1,.53-.33Z"/><path class="cls-50" d="M20.33,74.27a.5.5,0,0,1,.42-.32h0a.49.49,0,0,1-.42.32Z"/><path class="cls-15" d="M51.06,115.49a1,1,0,0,1-.32.53A.5.5,0,0,1,51.06,115.49Z"/><path class="cls-15" d="M51.16,115.28a.21.21,0,0,1-.1.21A.2.2,0,0,1,51.16,115.28Z"/><path class="cls-2" d="M56.8,88.61a10.28,10.28,0,0,1,5.63-9,11.61,11.61,0,0,1,6.77-1.44,9.86,9.86,0,0,1,7.21,3.9,1.58,1.58,0,0,1,.43.84.59.59,0,0,0,.17.32,4.26,4.26,0,0,1,1,2.22A9.61,9.61,0,0,1,75.22,95a11.51,11.51,0,0,1-6,3.24,11.08,11.08,0,0,1-6.27-.7,9.38,9.38,0,0,1-3.83-2.91,1,1,0,0,0-.58-.43.8.8,0,0,1-.65-.77,2.69,2.69,0,0,0-.17-.55A12.07,12.07,0,0,1,56.8,88.61Z"/><path class="cls-2" d="M22.65,86.08a8.87,8.87,0,0,1,1-4.17,4.21,4.21,0,0,1,.82-1.1,1.51,1.51,0,0,1,1.94-.25,3.55,3.55,0,0,1,1.14,1,10,10,0,0,1,1.61,3.13,16,16,0,0,1,.84,7,17.9,17.9,0,0,1-.51,2.91c-.07.25-.17.36-.44.3a1,1,0,0,0-.63,0c-.31-.09-.16-.31-.11-.46.11-.31.25-.62.33-.94a10.49,10.49,0,0,0,.59-3.38c0-.65,0-1.3,0-2a1.75,1.75,0,0,0-.18-.87.61.61,0,0,0-.83-.34,2.47,2.47,0,0,1-3-1.27,4,4,0,0,1-.1-2.7.51.51,0,0,1,.4-.43c.35-.08.42-.35.17-.6a.8.8,0,0,0-.78-.22,1.42,1.42,0,0,0-1,.75,4.58,4.58,0,0,0-.47,1.88.93.93,0,0,1,.31-.62c.1,0,.15.06.19.14a2.65,2.65,0,0,1-.08,1.22.77.77,0,0,1-.23.4A2,2,0,0,0,23,86.78c0,.18,0,.43-.34.41A3,3,0,0,1,22.65,86.08Z"/><path class="cls-63" d="M27.88,95.17a1.34,1.34,0,0,0-.28,1,1.11,1.11,0,0,1-1.15,0,4.15,4.15,0,0,1-2-2.33,10.66,10.66,0,0,1-.84-3.78.58.58,0,0,1,.1-.32,2.94,2.94,0,0,1,1.64.94c.52.45,1,.89,1.6,1.29a1.71,1.71,0,0,0,1.4.33c.45-.1.53,0,.47.45a5.72,5.72,0,0,1-.11.57,9.66,9.66,0,0,1-.53,1.48A.59.59,0,0,0,27.88,95.17Z"/><path class="cls-64" d="M23.71,90.08a12.71,12.71,0,0,0,.74,3.5,8.52,8.52,0,0,0,1.05,1.77,2.76,2.76,0,0,0,1.27.83c.28.11.55-.1.83,0a1.58,1.58,0,0,0,.37.68,1.39,1.39,0,0,1-1.52.15,3,3,0,0,1-.94-.67,6.73,6.73,0,0,1-1.44-2.14,15.53,15.53,0,0,1-1.41-5.72c0-.56-.07-1.13-.08-1.69a1.43,1.43,0,0,1,.07-.68c.07.37-.11.77.11,1.12a.28.28,0,0,1,.12.23,3.6,3.6,0,0,0,.66,1.84,1.24,1.24,0,0,1,.15.33C23.69,89.76,23.62,89.93,23.71,90.08Z"/><path class="cls-65" d="M28.05,94.84l.52-1.53c.11,0,.12.15.14.25a8.56,8.56,0,0,1-.35,1.12c0,.1-.12.19,0,.27-.1.16-.2,0-.3,0s0,0,0-.06S28,94.84,28.05,94.84Z"/><path class="cls-66" d="M28.05,94.84l0,.1a.33.33,0,0,1-.2.23C27.83,95,27.91,94.91,28.05,94.84Z"/><path class="cls-1" d="M74.82,94l-.14.1c-.11,0-.14-.06-.15-.16a16.52,16.52,0,0,0,1.3-3.34,9.56,9.56,0,0,0-.19-5.43,2.48,2.48,0,0,0-.89-1.27,4.21,4.21,0,0,1-.68,1.9c-.1.15,0,.25.13.36a3,3,0,0,1-1,4.46,38.47,38.47,0,0,1-7.84,2.7c-.4.09-.77.25-1.16.37a5.26,5.26,0,0,1-2.67.14,2.58,2.58,0,0,1-1.84-1.38A5.38,5.38,0,0,1,59.15,89a3,3,0,0,1,2.63-2.48,29.3,29.3,0,0,0,3.11-.55c.31,0,.15-.14.07-.25a3.08,3.08,0,0,0-.24-.27c-.9-1.44-1-2.25-.33-4.2a8.43,8.43,0,0,0-5.58,4.49,1,1,0,0,1-.07.15,5.19,5.19,0,0,0-.53,2.85,1.49,1.49,0,0,1,0,.21c0,.22.06.53-.26.51s-.22-.29-.19-.5a.56.56,0,0,0,0-.36,8.43,8.43,0,0,1,.93-4,8.27,8.27,0,0,1,4.61-4c.65-.23,1.32-.36,1.95-.63.1,0,.23-.12.3-.09.48.23.87-.09,1.3-.17a.8.8,0,0,1,.15,0c.13,0,.26,0,.31.17a.24.24,0,0,1-.12.27c-.14.11-.29.2-.44.3a4.28,4.28,0,0,0-1.52,1.5,2.82,2.82,0,0,0,.42,3.38,5,5,0,0,0,3.65,1.65,5.43,5.43,0,0,0,2.32-.39,3.48,3.48,0,0,0,2.18-2.78.43.43,0,0,0-.15-.41.47.47,0,0,1-.1-.7.54.54,0,0,1,.76-.07,3.69,3.69,0,0,1,1.36,1.3,7.29,7.29,0,0,1,1,3,14.1,14.1,0,0,1-.46,4.71A5.33,5.33,0,0,1,74.82,94Z"/><path class="cls-67" d="M57.75,88.55c.11.2,0,.41.08.62s.07.21.19.19a.17.17,0,0,0,.13-.24,2.7,2.7,0,0,1-.1-1.09,4.19,4.19,0,0,1,.63-2.31.12.12,0,0,0,0-.13A8.4,8.4,0,0,1,64.62,81a.17.17,0,0,1,0,.23,3.36,3.36,0,0,0-.15,3.42c.1.24.25.47.37.7s.1.22.16.31.12.22,0,.34l-1.69.41a5.16,5.16,0,0,1-1.1.13,3,3,0,0,0-3,3,6.42,6.42,0,0,0,.3,2.13,2.75,2.75,0,0,0,2.66,2,6.26,6.26,0,0,0,2.23-.29c1.3-.39,2.62-.73,3.93-1.07A11.87,11.87,0,0,0,70,91.84c1.15-.5,2.33-.92,3.43-1.51a2.22,2.22,0,0,0,1.22-2,6.57,6.57,0,0,0-.1-1.16A1.64,1.64,0,0,0,73.77,86a3.48,3.48,0,0,0,.82-2.3,1.14,1.14,0,0,1,.69.54,4.56,4.56,0,0,1,.77,1.89,10.05,10.05,0,0,1-.26,5.16A9.87,9.87,0,0,1,74.58,94a3.73,3.73,0,0,1-1,1.09,2.63,2.63,0,0,0-.45.36,11.62,11.62,0,0,1-2.58,1.43,6,6,0,0,1-2,.41,12.24,12.24,0,0,1-4.73-.64,10.63,10.63,0,0,1-5-3.64c-.55-.73-.54-1.71-1.07-2.45A5.13,5.13,0,0,1,57.75,88.55Z"/><path class="cls-68" d="M74.82,94a20.39,20.39,0,0,0,1.36-2.47,5.63,5.63,0,0,1-.84,2.25A.38.38,0,0,1,74.82,94Z"/><path class="cls-69" d="M73.09,95.43c0-.1-.08-.22,0-.27A6.05,6.05,0,0,0,74.58,94l.1.11A3,3,0,0,1,73.09,95.43Z"/><path class="cls-70" d="M60.48,95.55a2.2,2.2,0,0,1,.86.65,2.47,2.47,0,0,1-.85-.52.09.09,0,0,1,0-.09S60.47,95.55,60.48,95.55Z"/><path class="cls-71" d="M60.48,95.55v.13a.83.83,0,0,1-.38-.4A.47.47,0,0,1,60.48,95.55Z"/><path class="cls-1" d="M28.71,93.56c-.11,0-.11-.15-.14-.25l.13-1a1.84,1.84,0,0,1-2-.34,7.42,7.42,0,0,1-.83-.65,11.55,11.55,0,0,0-2.1-1.58c-.09,0-.1-.09-.14-.14-.15-.26-.31-.5-.47-.76a2.83,2.83,0,0,1-.38-1.66c.06-.29.08-.59.16-.86a2.75,2.75,0,0,1,.8-1.13,1.14,1.14,0,0,0,.39-1.07,2.09,2.09,0,0,1,0-.66,3.48,3.48,0,0,1,.23-.64.72.72,0,0,1,.14-.19c-.07,0-.1.1-.14.17-.23.32-.3.74-.63,1s-.17.78-.43,1.15a3.7,3.7,0,0,1,.78-3,1.3,1.3,0,0,1,1.5-.27.61.61,0,0,1,.39.53.54.54,0,0,1-.15.48c-.2.16-.32,0-.5-.1a4.14,4.14,0,0,0-.09,2.88,2.08,2.08,0,0,0,2,1.4.78.78,0,0,1,.21,0,.76.76,0,0,0,.72-.1.63.63,0,0,1,.95.22,1.52,1.52,0,0,1,.25.9c0,1.16,0,2.33-.08,3.49A7.16,7.16,0,0,1,28.71,93.56Z"/><path class="cls-63" d="M24.28,83.37a7.06,7.06,0,0,0,0,1.66l-.54.18.12-1.29C23.93,83.69,23.83,83.3,24.28,83.37Z"/><path class="cls-72" d="M24.28,83.37c-.35,0-.29.37-.44.55l-.1-.1a2.62,2.62,0,0,1,.6-1.08.1.1,0,0,1,.15,0Z"/><path class="cls-73" d="M23.61,89.62l.14.14c0,.11,0,.22,0,.32A.62.62,0,0,1,23.61,89.62Z"/><path class="cls-74" d="M65,86l-.11-.31c0-.1,0-.14.13-.1l.33.38A.49.49,0,0,1,65,86Z"/><path class="cls-75" d="M65.05,85.61l-.13.1a.42.42,0,0,1-.09-.34A.4.4,0,0,1,65.05,85.61Z"/><path class="cls-76" d="M68,88.83s0,0,0,0,0,0,0,0,0,0,0-.06Z"/><path class="cls-77" d="M58.72,85.59c.06.07,0,.11,0,.13Z"/><path class="cls-78" d="M24.49,82.75h-.15c0-.09.1-.17.18-.14S24.57,82.71,24.49,82.75Z"/><text/><path class="cls-79" d="M145,99H124.82V51.75H132v38.8h13Z"/><path class="cls-79" d="M168.78,75.11V89.58a7.3,7.3,0,0,0,.41,2.32,1.87,1.87,0,0,0,1.31.94l-.21,7a15.15,15.15,0,0,1-4.25-.49,8.69,8.69,0,0,1-3.21-1.95,13.94,13.94,0,0,1-7.66,2.44q-8.08,0-8.08-11.41c0-3.7.74-6.33,2.24-7.89s3.79-2.47,6.88-2.74l5.58-.56V75.11a4.43,4.43,0,0,0-.73-3,3.06,3.06,0,0,0-2.35-.8l-9.8.56-.21-6.47a31.36,31.36,0,0,1,10.61-2c3.36,0,5.77.93,7.25,2.78S168.78,71,168.78,75.11Zm-11.73,9.18q-2.93.34-2.92,4.17t2.55,3.83a13,13,0,0,0,4.33-.84l.78-.28V83.74Z"/><path class="cls-79" d="M182.44,99h-7V64.27h6.93v1.94q3.6-2.77,6.16-2.78a7.48,7.48,0,0,1,6.51,3.27q4.8-3.27,8.76-3.27c3.44,0,5.83,1.34,7.17,4s2,6.92,2,12.76V99h-7V80.47a21.59,21.59,0,0,0-.73-6.57,2.84,2.84,0,0,0-2.92-2.12,11.12,11.12,0,0,0-4.06,1l-.79.35c.14,3.47.21,6.12.21,7.92V99h-7V81.16a26.84,26.84,0,0,0-.68-7.26,2.82,2.82,0,0,0-3-2.12,9,9,0,0,0-4,1l-.62.28Z"/><path class="cls-79" d="M231.81,63.43c3.65,0,6.32,1.34,8,4s2.53,7.43,2.53,14.29-1,11.6-2.92,14.22-5.3,3.93-10.06,3.93c-1.49,0-4.22-.24-8.18-.7l-2-.28V50.36h7v15A12.12,12.12,0,0,1,231.81,63.43Zm-2.45,28.09q3.49,0,4.69-2.26t1.2-8.1q0-9.37-4.38-9.38a11.37,11.37,0,0,0-4,.69l-.73.21V91.24C227.78,91.43,228.84,91.52,229.36,91.52Z"/><path class="cls-79" d="M258.82,59.26q-5.69,0-5.68,5a4.2,4.2,0,0,0,1.4,3.4,31.7,31.7,0,0,0,6.6,3.41c3.46,1.49,5.88,3.16,7.27,5s2.09,4.76,2.09,8.66q0,7.44-3.39,11.26a11.28,11.28,0,0,1-8.86,3.83,37.71,37.71,0,0,1-10-1.67l-1.88-.49.73-7.44a66.15,66.15,0,0,0,10.69,1.25c3.68,0,5.53-2,5.53-6.12a4.63,4.63,0,0,0-1.28-3.47A15.79,15.79,0,0,0,257,79.22q-6-2.3-8.52-5.46T246,65c0-4.72,1.08-8.25,3.24-10.56a11.49,11.49,0,0,1,8.86-3.48,44.56,44.56,0,0,1,9.8,1.39l1.88.49-.57,7.57A81.22,81.22,0,0,0,258.82,59.26Z"/><path class="cls-79" d="M273.31,64.27h6.89l3.18,26.83h1.25l4-26.14h7.2l4,26.14H301l3.18-26.83h6.88L306.11,99H295.16l-3-21.27-3,21.27h-11Z"/><path class="cls-79" d="M335.52,75.11V89.58a7,7,0,0,0,.41,2.32,1.87,1.87,0,0,0,1.31.94l-.21,7a15.15,15.15,0,0,1-4.25-.49,8.69,8.69,0,0,1-3.21-1.95,14,14,0,0,1-7.66,2.44q-8.09,0-8.08-11.41c0-3.7.74-6.33,2.24-7.89s3.79-2.47,6.88-2.74l5.58-.56V75.11a4.43,4.43,0,0,0-.73-3,3.06,3.06,0,0,0-2.35-.8l-9.8.56-.21-6.47a31.36,31.36,0,0,1,10.61-2c3.36,0,5.77.93,7.25,2.78S335.52,71,335.52,75.11Zm-11.74,9.18c-1.94.23-2.92,1.62-2.92,4.17s.86,3.83,2.56,3.83a13,13,0,0,0,4.33-.84l.78-.28V83.74Z"/><path class="cls-79" d="M342.19,113.63V64.27h6.93v1.88q3.39-2.72,5.95-2.72a8.42,8.42,0,0,1,7.77,4.21q2.49,4.2,2.5,14.29t-2.76,14q-2.77,3.93-9.08,3.93a17.94,17.94,0,0,1-3.7-.42l-.62-.14v14.32Zm11.52-41.85a8.27,8.27,0,0,0-3.91,1l-.62.35V91.38a22.53,22.53,0,0,0,3.8.42,4.18,4.18,0,0,0,4.15-2.36c.74-1.58,1.12-4.27,1.12-8.07Q358.25,71.77,353.71,71.78Z"/></g></g></svg>